<mxfile host="app.diagrams.net" modified="2024-07-10T16:15:58.916Z" agent="Mozilla/5.0 (Macintosh; Intel Mac OS X 10_15_7) AppleWebKit/537.36 (KHTML, like Gecko) Chrome/126.0.0.0 Safari/537.36" etag="89hHUzNVIz0qrvUffi3l" version="24.6.4" type="github">
  <diagram name="第 1 页" id="EeZ5rZGlugQ-Jx4Wtcbi">
    <mxGraphModel dx="2901" dy="1146" grid="1" gridSize="10" guides="1" tooltips="1" connect="1" arrows="1" fold="1" page="1" pageScale="1" pageWidth="827" pageHeight="1169" math="0" shadow="0">
      <root>
        <mxCell id="0" />
        <mxCell id="1" parent="0" />
        <mxCell id="GUqVhu9UTtbnG5ZzC5dU-112" value="" style="rounded=0;whiteSpace=wrap;html=1;dashed=1;dashPattern=8 8;strokeWidth=2;shadow=0;glass=0;fillStyle=auto;fillColor=#dae8fc;strokeColor=none;" vertex="1" parent="1">
          <mxGeometry x="790" y="980" width="280" height="160" as="geometry" />
        </mxCell>
        <mxCell id="GUqVhu9UTtbnG5ZzC5dU-78" value="" style="group" vertex="1" connectable="0" parent="1">
          <mxGeometry x="-470" y="750" width="741" height="420" as="geometry" />
        </mxCell>
        <mxCell id="GUqVhu9UTtbnG5ZzC5dU-77" value="&lt;font style=&quot;font-size: 17px;&quot;&gt;&lt;b&gt;&lt;font style=&quot;font-size: 17px;&quot;&gt;正常参数&lt;br&gt;平级+子级&lt;br&gt;&lt;/font&gt;&lt;/b&gt;&lt;b&gt;&lt;font style=&quot;font-size: 17px;&quot;&gt;（2）&lt;/font&gt;&lt;/b&gt;&lt;/font&gt;&lt;b&gt;&lt;font style=&quot;font-size: 20px;&quot;&gt;&lt;br&gt;&lt;/font&gt;&lt;/b&gt;" style="rounded=1;whiteSpace=wrap;html=1;strokeWidth=2;fillWeight=4;hachureGap=8;hachureAngle=45;fillColor=#1ba1e2;sketch=1;container=0;" vertex="1" parent="GUqVhu9UTtbnG5ZzC5dU-78">
          <mxGeometry x="228.25" width="284.5" height="90" as="geometry" />
        </mxCell>
        <mxCell id="GUqVhu9UTtbnG5ZzC5dU-25" value="" style="rounded=0;whiteSpace=wrap;html=1;container=0;" vertex="1" parent="GUqVhu9UTtbnG5ZzC5dU-78">
          <mxGeometry y="90" width="741" height="330" as="geometry" />
        </mxCell>
        <mxCell id="GUqVhu9UTtbnG5ZzC5dU-26" value="" style="endArrow=none;html=1;rounded=0;strokeWidth=5;" edge="1" parent="GUqVhu9UTtbnG5ZzC5dU-78">
          <mxGeometry width="50" height="50" relative="1" as="geometry">
            <mxPoint x="21" y="156" as="sourcePoint" />
            <mxPoint x="291" y="156" as="targetPoint" />
          </mxGeometry>
        </mxCell>
        <mxCell id="GUqVhu9UTtbnG5ZzC5dU-27" value="" style="endArrow=none;html=1;rounded=0;strokeWidth=5;" edge="1" parent="GUqVhu9UTtbnG5ZzC5dU-78">
          <mxGeometry width="50" height="50" relative="1" as="geometry">
            <mxPoint x="21" y="182" as="sourcePoint" />
            <mxPoint x="291" y="182" as="targetPoint" />
          </mxGeometry>
        </mxCell>
        <mxCell id="GUqVhu9UTtbnG5ZzC5dU-28" value="" style="endArrow=none;html=1;rounded=0;strokeWidth=5;" edge="1" parent="GUqVhu9UTtbnG5ZzC5dU-78">
          <mxGeometry width="50" height="50" relative="1" as="geometry">
            <mxPoint x="21" y="212" as="sourcePoint" />
            <mxPoint x="291" y="212" as="targetPoint" />
          </mxGeometry>
        </mxCell>
        <mxCell id="GUqVhu9UTtbnG5ZzC5dU-30" value="" style="endArrow=none;html=1;rounded=0;strokeWidth=5;" edge="1" parent="GUqVhu9UTtbnG5ZzC5dU-78">
          <mxGeometry width="50" height="50" relative="1" as="geometry">
            <mxPoint x="432" y="155" as="sourcePoint" />
            <mxPoint x="702" y="155" as="targetPoint" />
          </mxGeometry>
        </mxCell>
        <mxCell id="GUqVhu9UTtbnG5ZzC5dU-31" value="" style="endArrow=none;html=1;rounded=0;strokeWidth=5;" edge="1" parent="GUqVhu9UTtbnG5ZzC5dU-78">
          <mxGeometry width="50" height="50" relative="1" as="geometry">
            <mxPoint x="432" y="181" as="sourcePoint" />
            <mxPoint x="702" y="181" as="targetPoint" />
          </mxGeometry>
        </mxCell>
        <mxCell id="GUqVhu9UTtbnG5ZzC5dU-32" value="" style="endArrow=none;html=1;rounded=0;strokeWidth=5;" edge="1" parent="GUqVhu9UTtbnG5ZzC5dU-78">
          <mxGeometry width="50" height="50" relative="1" as="geometry">
            <mxPoint x="432" y="211" as="sourcePoint" />
            <mxPoint x="702" y="211" as="targetPoint" />
          </mxGeometry>
        </mxCell>
        <mxCell id="GUqVhu9UTtbnG5ZzC5dU-34" value="" style="endArrow=none;html=1;rounded=0;strokeWidth=5;dashed=1;dashPattern=1 1;" edge="1" parent="GUqVhu9UTtbnG5ZzC5dU-78">
          <mxGeometry width="50" height="50" relative="1" as="geometry">
            <mxPoint x="501" y="270" as="sourcePoint" />
            <mxPoint x="691" y="270" as="targetPoint" />
          </mxGeometry>
        </mxCell>
        <mxCell id="GUqVhu9UTtbnG5ZzC5dU-35" value="" style="endArrow=none;html=1;rounded=0;strokeWidth=5;dashed=1;dashPattern=1 1;" edge="1" parent="GUqVhu9UTtbnG5ZzC5dU-78">
          <mxGeometry width="50" height="50" relative="1" as="geometry">
            <mxPoint x="541" y="360" as="sourcePoint" />
            <mxPoint x="691" y="360" as="targetPoint" />
          </mxGeometry>
        </mxCell>
        <mxCell id="GUqVhu9UTtbnG5ZzC5dU-36" value="" style="endArrow=none;html=1;rounded=0;strokeWidth=5;dashed=1;dashPattern=1 1;" edge="1" parent="GUqVhu9UTtbnG5ZzC5dU-78">
          <mxGeometry width="50" height="50" relative="1" as="geometry">
            <mxPoint x="501" y="300" as="sourcePoint" />
            <mxPoint x="691" y="300" as="targetPoint" />
          </mxGeometry>
        </mxCell>
        <mxCell id="GUqVhu9UTtbnG5ZzC5dU-37" value="" style="endArrow=none;html=1;rounded=0;strokeWidth=5;dashed=1;dashPattern=1 1;" edge="1" parent="GUqVhu9UTtbnG5ZzC5dU-78">
          <mxGeometry width="50" height="50" relative="1" as="geometry">
            <mxPoint x="541" y="330" as="sourcePoint" />
            <mxPoint x="691" y="330" as="targetPoint" />
          </mxGeometry>
        </mxCell>
        <mxCell id="GUqVhu9UTtbnG5ZzC5dU-39" value="AI" style="shape=curlyBracket;whiteSpace=wrap;html=1;rounded=1;flipH=1;labelPosition=right;verticalLabelPosition=middle;align=left;verticalAlign=middle;container=0;" vertex="1" parent="GUqVhu9UTtbnG5ZzC5dU-78">
          <mxGeometry x="691" y="260" width="20" height="110" as="geometry" />
        </mxCell>
        <mxCell id="GUqVhu9UTtbnG5ZzC5dU-42" value="" style="endArrow=none;html=1;rounded=0;strokeWidth=5;" edge="1" parent="GUqVhu9UTtbnG5ZzC5dU-78">
          <mxGeometry width="50" height="50" relative="1" as="geometry">
            <mxPoint x="91" y="241" as="sourcePoint" />
            <mxPoint x="291" y="241" as="targetPoint" />
          </mxGeometry>
        </mxCell>
        <mxCell id="GUqVhu9UTtbnG5ZzC5dU-43" value="&lt;b&gt;&lt;font style=&quot;font-size: 13px;&quot;&gt;&amp;nbsp;inputing&amp;nbsp;&lt;/font&gt;&lt;/b&gt;" style="edgeLabel;html=1;align=center;verticalAlign=middle;resizable=0;points=[];container=0;" vertex="1" connectable="0" parent="GUqVhu9UTtbnG5ZzC5dU-42">
          <mxGeometry x="0.615" y="3" relative="1" as="geometry">
            <mxPoint as="offset" />
          </mxGeometry>
        </mxCell>
        <mxCell id="GUqVhu9UTtbnG5ZzC5dU-48" value="" style="endArrow=none;html=1;rounded=0;strokeWidth=5;" edge="1" parent="GUqVhu9UTtbnG5ZzC5dU-78">
          <mxGeometry width="50" height="50" relative="1" as="geometry">
            <mxPoint x="501" y="240" as="sourcePoint" />
            <mxPoint x="701" y="240" as="targetPoint" />
          </mxGeometry>
        </mxCell>
        <mxCell id="GUqVhu9UTtbnG5ZzC5dU-49" value="&lt;b&gt;&lt;font style=&quot;font-size: 13px;&quot;&gt;&amp;nbsp;inputing&amp;nbsp;&lt;/font&gt;&lt;/b&gt;" style="edgeLabel;html=1;align=center;verticalAlign=middle;resizable=0;points=[];container=0;" vertex="1" connectable="0" parent="GUqVhu9UTtbnG5ZzC5dU-48">
          <mxGeometry x="0.615" y="3" relative="1" as="geometry">
            <mxPoint as="offset" />
          </mxGeometry>
        </mxCell>
        <mxCell id="GUqVhu9UTtbnG5ZzC5dU-79" value="" style="group" vertex="1" connectable="0" parent="1">
          <mxGeometry x="-480" y="230" width="741" height="420" as="geometry" />
        </mxCell>
        <mxCell id="GUqVhu9UTtbnG5ZzC5dU-19" value="&lt;font style=&quot;font-size: 17px;&quot;&gt;&lt;b&gt;&lt;font style=&quot;font-size: 17px;&quot;&gt;正常参数&lt;br&gt;平级+子级&lt;br&gt;&lt;/font&gt;&lt;/b&gt;&lt;b&gt;&lt;font style=&quot;font-size: 17px;&quot;&gt;（1）&lt;/font&gt;&lt;/b&gt;&lt;/font&gt;&lt;b&gt;&lt;font style=&quot;font-size: 20px;&quot;&gt;&lt;br&gt;&lt;/font&gt;&lt;/b&gt;" style="rounded=1;whiteSpace=wrap;html=1;strokeWidth=2;fillWeight=4;hachureGap=8;hachureAngle=45;fillColor=#1ba1e2;sketch=1;container=0;" vertex="1" parent="GUqVhu9UTtbnG5ZzC5dU-79">
          <mxGeometry x="228.25" width="284.5" height="90" as="geometry" />
        </mxCell>
        <mxCell id="GUqVhu9UTtbnG5ZzC5dU-17" value="" style="rounded=0;whiteSpace=wrap;html=1;container=0;" vertex="1" parent="GUqVhu9UTtbnG5ZzC5dU-79">
          <mxGeometry y="90" width="741" height="330" as="geometry" />
        </mxCell>
        <mxCell id="GUqVhu9UTtbnG5ZzC5dU-5" value="" style="endArrow=none;html=1;rounded=0;strokeWidth=5;" edge="1" parent="GUqVhu9UTtbnG5ZzC5dU-79">
          <mxGeometry width="50" height="50" relative="1" as="geometry">
            <mxPoint x="20" y="155" as="sourcePoint" />
            <mxPoint x="290" y="155" as="targetPoint" />
          </mxGeometry>
        </mxCell>
        <mxCell id="GUqVhu9UTtbnG5ZzC5dU-6" value="" style="endArrow=none;html=1;rounded=0;strokeWidth=5;" edge="1" parent="GUqVhu9UTtbnG5ZzC5dU-79">
          <mxGeometry width="50" height="50" relative="1" as="geometry">
            <mxPoint x="20" y="181" as="sourcePoint" />
            <mxPoint x="290" y="181" as="targetPoint" />
          </mxGeometry>
        </mxCell>
        <mxCell id="GUqVhu9UTtbnG5ZzC5dU-7" value="" style="endArrow=none;html=1;rounded=0;strokeWidth=5;" edge="1" parent="GUqVhu9UTtbnG5ZzC5dU-79">
          <mxGeometry width="50" height="50" relative="1" as="geometry">
            <mxPoint x="20" y="211" as="sourcePoint" />
            <mxPoint x="290" y="211" as="targetPoint" />
          </mxGeometry>
        </mxCell>
        <mxCell id="GUqVhu9UTtbnG5ZzC5dU-8" value="" style="endArrow=none;html=1;rounded=0;strokeWidth=5;" edge="1" parent="GUqVhu9UTtbnG5ZzC5dU-79">
          <mxGeometry width="50" height="50" relative="1" as="geometry">
            <mxPoint x="20" y="240" as="sourcePoint" />
            <mxPoint x="290" y="240" as="targetPoint" />
          </mxGeometry>
        </mxCell>
        <mxCell id="GUqVhu9UTtbnG5ZzC5dU-40" value="&lt;b&gt;&lt;font style=&quot;font-size: 13px;&quot;&gt;&amp;nbsp;inputing&amp;nbsp;&lt;/font&gt;&lt;/b&gt;" style="edgeLabel;html=1;align=center;verticalAlign=middle;resizable=0;points=[];container=0;" vertex="1" connectable="0" parent="GUqVhu9UTtbnG5ZzC5dU-8">
          <mxGeometry x="0.615" y="3" relative="1" as="geometry">
            <mxPoint as="offset" />
          </mxGeometry>
        </mxCell>
        <mxCell id="GUqVhu9UTtbnG5ZzC5dU-9" value="" style="endArrow=none;html=1;rounded=0;strokeWidth=5;" edge="1" parent="GUqVhu9UTtbnG5ZzC5dU-79">
          <mxGeometry width="50" height="50" relative="1" as="geometry">
            <mxPoint x="431" y="155" as="sourcePoint" />
            <mxPoint x="701" y="155" as="targetPoint" />
          </mxGeometry>
        </mxCell>
        <mxCell id="GUqVhu9UTtbnG5ZzC5dU-10" value="" style="endArrow=none;html=1;rounded=0;strokeWidth=5;" edge="1" parent="GUqVhu9UTtbnG5ZzC5dU-79">
          <mxGeometry width="50" height="50" relative="1" as="geometry">
            <mxPoint x="431" y="181" as="sourcePoint" />
            <mxPoint x="701" y="181" as="targetPoint" />
          </mxGeometry>
        </mxCell>
        <mxCell id="GUqVhu9UTtbnG5ZzC5dU-11" value="" style="endArrow=none;html=1;rounded=0;strokeWidth=5;" edge="1" parent="GUqVhu9UTtbnG5ZzC5dU-79">
          <mxGeometry width="50" height="50" relative="1" as="geometry">
            <mxPoint x="431" y="211" as="sourcePoint" />
            <mxPoint x="701" y="211" as="targetPoint" />
          </mxGeometry>
        </mxCell>
        <mxCell id="GUqVhu9UTtbnG5ZzC5dU-13" value="" style="endArrow=none;html=1;rounded=0;strokeWidth=5;dashed=1;dashPattern=1 1;" edge="1" parent="GUqVhu9UTtbnG5ZzC5dU-79">
          <mxGeometry width="50" height="50" relative="1" as="geometry">
            <mxPoint x="431" y="270" as="sourcePoint" />
            <mxPoint x="701" y="270" as="targetPoint" />
          </mxGeometry>
        </mxCell>
        <mxCell id="GUqVhu9UTtbnG5ZzC5dU-14" value="" style="endArrow=none;html=1;rounded=0;strokeWidth=5;dashed=1;dashPattern=1 1;" edge="1" parent="GUqVhu9UTtbnG5ZzC5dU-79">
          <mxGeometry width="50" height="50" relative="1" as="geometry">
            <mxPoint x="481" y="360" as="sourcePoint" />
            <mxPoint x="701" y="360" as="targetPoint" />
          </mxGeometry>
        </mxCell>
        <mxCell id="GUqVhu9UTtbnG5ZzC5dU-15" value="" style="endArrow=none;html=1;rounded=0;strokeWidth=5;dashed=1;dashPattern=1 1;" edge="1" parent="GUqVhu9UTtbnG5ZzC5dU-79">
          <mxGeometry width="50" height="50" relative="1" as="geometry">
            <mxPoint x="431" y="300" as="sourcePoint" />
            <mxPoint x="701" y="300" as="targetPoint" />
          </mxGeometry>
        </mxCell>
        <mxCell id="GUqVhu9UTtbnG5ZzC5dU-16" value="" style="endArrow=none;html=1;rounded=0;strokeWidth=5;dashed=1;dashPattern=1 1;" edge="1" parent="GUqVhu9UTtbnG5ZzC5dU-79">
          <mxGeometry width="50" height="50" relative="1" as="geometry">
            <mxPoint x="481" y="330" as="sourcePoint" />
            <mxPoint x="701" y="330" as="targetPoint" />
          </mxGeometry>
        </mxCell>
        <mxCell id="GUqVhu9UTtbnG5ZzC5dU-21" value="AI" style="shape=curlyBracket;whiteSpace=wrap;html=1;rounded=1;flipH=1;labelPosition=right;verticalLabelPosition=middle;align=left;verticalAlign=middle;container=0;" vertex="1" parent="GUqVhu9UTtbnG5ZzC5dU-79">
          <mxGeometry x="701" y="260" width="20" height="110" as="geometry" />
        </mxCell>
        <mxCell id="GUqVhu9UTtbnG5ZzC5dU-46" value="" style="endArrow=none;html=1;rounded=0;strokeWidth=5;" edge="1" parent="GUqVhu9UTtbnG5ZzC5dU-79">
          <mxGeometry width="50" height="50" relative="1" as="geometry">
            <mxPoint x="431" y="240" as="sourcePoint" />
            <mxPoint x="701" y="240" as="targetPoint" />
          </mxGeometry>
        </mxCell>
        <mxCell id="GUqVhu9UTtbnG5ZzC5dU-47" value="&lt;b&gt;&lt;font style=&quot;font-size: 13px;&quot;&gt;&amp;nbsp;inputing&amp;nbsp;&lt;/font&gt;&lt;/b&gt;" style="edgeLabel;html=1;align=center;verticalAlign=middle;resizable=0;points=[];container=0;" vertex="1" connectable="0" parent="GUqVhu9UTtbnG5ZzC5dU-46">
          <mxGeometry x="0.615" y="3" relative="1" as="geometry">
            <mxPoint as="offset" />
          </mxGeometry>
        </mxCell>
        <mxCell id="GUqVhu9UTtbnG5ZzC5dU-88" value="" style="endArrow=none;html=1;rounded=0;strokeWidth=5;" edge="1" parent="1">
          <mxGeometry width="50" height="50" relative="1" as="geometry">
            <mxPoint x="380.99" y="926" as="sourcePoint" />
            <mxPoint x="650.99" y="926" as="targetPoint" />
          </mxGeometry>
        </mxCell>
        <mxCell id="GUqVhu9UTtbnG5ZzC5dU-89" value="" style="endArrow=none;html=1;rounded=0;strokeWidth=5;" edge="1" parent="1">
          <mxGeometry width="50" height="50" relative="1" as="geometry">
            <mxPoint x="380.99" y="952" as="sourcePoint" />
            <mxPoint x="650.99" y="952" as="targetPoint" />
          </mxGeometry>
        </mxCell>
        <mxCell id="GUqVhu9UTtbnG5ZzC5dU-90" value="" style="endArrow=none;html=1;rounded=0;strokeWidth=5;" edge="1" parent="1">
          <mxGeometry width="50" height="50" relative="1" as="geometry">
            <mxPoint x="380.99" y="982" as="sourcePoint" />
            <mxPoint x="650.99" y="982" as="targetPoint" />
          </mxGeometry>
        </mxCell>
        <mxCell id="GUqVhu9UTtbnG5ZzC5dU-91" value="" style="endArrow=none;html=1;rounded=0;strokeWidth=5;" edge="1" parent="1">
          <mxGeometry width="50" height="50" relative="1" as="geometry">
            <mxPoint x="791.99" y="925" as="sourcePoint" />
            <mxPoint x="1061.99" y="925" as="targetPoint" />
          </mxGeometry>
        </mxCell>
        <mxCell id="GUqVhu9UTtbnG5ZzC5dU-92" value="" style="endArrow=none;html=1;rounded=0;strokeWidth=5;" edge="1" parent="1">
          <mxGeometry width="50" height="50" relative="1" as="geometry">
            <mxPoint x="791.99" y="951" as="sourcePoint" />
            <mxPoint x="1061.99" y="951" as="targetPoint" />
          </mxGeometry>
        </mxCell>
        <mxCell id="GUqVhu9UTtbnG5ZzC5dU-93" value="" style="endArrow=none;html=1;rounded=0;strokeWidth=5;dashed=1;dashPattern=1 1;labelBorderColor=none;" edge="1" parent="1">
          <mxGeometry width="50" height="50" relative="1" as="geometry">
            <mxPoint x="799.99" y="981" as="sourcePoint" />
            <mxPoint x="1063" y="981" as="targetPoint" />
          </mxGeometry>
        </mxCell>
        <mxCell id="GUqVhu9UTtbnG5ZzC5dU-94" value="" style="endArrow=none;html=1;rounded=0;strokeWidth=5;dashed=1;dashPattern=1 1;labelBorderColor=none;" edge="1" parent="1">
          <mxGeometry width="50" height="50" relative="1" as="geometry">
            <mxPoint x="870" y="1010" as="sourcePoint" />
            <mxPoint x="1063" y="1010" as="targetPoint" />
          </mxGeometry>
        </mxCell>
        <mxCell id="GUqVhu9UTtbnG5ZzC5dU-95" value="" style="endArrow=none;html=1;rounded=0;strokeWidth=5;dashed=1;dashPattern=1 1;labelBorderColor=none;" edge="1" parent="1">
          <mxGeometry width="50" height="50" relative="1" as="geometry">
            <mxPoint x="979.99" y="1130" as="sourcePoint" />
            <mxPoint x="1063" y="1130" as="targetPoint" />
          </mxGeometry>
        </mxCell>
        <mxCell id="GUqVhu9UTtbnG5ZzC5dU-96" value="" style="endArrow=none;html=1;rounded=0;strokeWidth=5;dashed=1;dashPattern=1 1;labelBorderColor=none;" edge="1" parent="1">
          <mxGeometry width="50" height="50" relative="1" as="geometry">
            <mxPoint x="899.99" y="1070" as="sourcePoint" />
            <mxPoint x="1063" y="1070" as="targetPoint" />
          </mxGeometry>
        </mxCell>
        <mxCell id="GUqVhu9UTtbnG5ZzC5dU-97" value="" style="endArrow=none;html=1;rounded=0;strokeWidth=5;dashed=1;dashPattern=1 1;labelBorderColor=none;" edge="1" parent="1">
          <mxGeometry width="50" height="50" relative="1" as="geometry">
            <mxPoint x="919.99" y="1100" as="sourcePoint" />
            <mxPoint x="1063" y="1100" as="targetPoint" />
          </mxGeometry>
        </mxCell>
        <mxCell id="GUqVhu9UTtbnG5ZzC5dU-98" value="" style="endArrow=none;html=1;rounded=0;strokeWidth=5;" edge="1" parent="1">
          <mxGeometry width="50" height="50" relative="1" as="geometry">
            <mxPoint x="450.99" y="1011" as="sourcePoint" />
            <mxPoint x="650.99" y="1011" as="targetPoint" />
          </mxGeometry>
        </mxCell>
        <mxCell id="GUqVhu9UTtbnG5ZzC5dU-100" value="" style="endArrow=none;html=1;rounded=0;strokeWidth=5;labelBorderColor=none;" edge="1" parent="1">
          <mxGeometry width="50" height="50" relative="1" as="geometry">
            <mxPoint x="870" y="1040.5" as="sourcePoint" />
            <mxPoint x="979.99" y="1040.5" as="targetPoint" />
          </mxGeometry>
        </mxCell>
        <mxCell id="GUqVhu9UTtbnG5ZzC5dU-101" value="&lt;b&gt;&lt;font style=&quot;font-size: 13px;&quot;&gt;&amp;nbsp;inputing&amp;nbsp;&lt;/font&gt;&lt;/b&gt;" style="edgeLabel;html=1;align=center;verticalAlign=middle;resizable=0;points=[];container=0;labelBorderColor=none;" vertex="1" connectable="0" parent="GUqVhu9UTtbnG5ZzC5dU-100">
          <mxGeometry x="0.615" y="3" relative="1" as="geometry">
            <mxPoint as="offset" />
          </mxGeometry>
        </mxCell>
        <mxCell id="GUqVhu9UTtbnG5ZzC5dU-102" value="" style="endArrow=none;html=1;rounded=0;strokeWidth=5;dashed=1;dashPattern=1 1;labelBorderColor=none;" edge="1" parent="1">
          <mxGeometry width="50" height="50" relative="1" as="geometry">
            <mxPoint x="979.99" y="1040" as="sourcePoint" />
            <mxPoint x="1063" y="1040" as="targetPoint" />
          </mxGeometry>
        </mxCell>
        <mxCell id="GUqVhu9UTtbnG5ZzC5dU-103" value="&lt;span style=&quot;text-wrap: nowrap;&quot;&gt;&lt;font style=&quot;font-size: 17px;&quot;&gt;&lt;b&gt;当前输入的父级命中Ref Model&lt;/b&gt;&lt;/font&gt;&lt;/span&gt;&lt;b&gt;&lt;font style=&quot;font-size: 20px;&quot;&gt;&lt;br&gt;&lt;/font&gt;&lt;/b&gt;" style="rounded=1;whiteSpace=wrap;html=1;strokeWidth=2;fillWeight=4;hachureGap=8;hachureAngle=45;fillColor=#1ba1e2;sketch=1;container=0;" vertex="1" parent="1">
          <mxGeometry x="491.968947368421" y="770" width="486.05263157894734" height="90" as="geometry" />
        </mxCell>
        <mxCell id="GUqVhu9UTtbnG5ZzC5dU-104" value="AI" style="shape=curlyBracket;whiteSpace=wrap;html=1;rounded=1;flipH=1;labelPosition=right;verticalLabelPosition=middle;align=left;verticalAlign=middle;container=0;" vertex="1" parent="1">
          <mxGeometry x="1070" y="976" width="21.05" height="164" as="geometry" />
        </mxCell>
        <mxCell id="GUqVhu9UTtbnG5ZzC5dU-105" value="" style="endArrow=none;html=1;rounded=0;strokeWidth=5;" edge="1" parent="1">
          <mxGeometry width="50" height="50" relative="1" as="geometry">
            <mxPoint x="450" y="1040" as="sourcePoint" />
            <mxPoint x="650" y="1040" as="targetPoint" />
          </mxGeometry>
        </mxCell>
        <mxCell id="GUqVhu9UTtbnG5ZzC5dU-106" value="&lt;b&gt;&lt;font style=&quot;font-size: 13px;&quot;&gt;&amp;nbsp;inputing&amp;nbsp;&lt;/font&gt;&lt;/b&gt;" style="edgeLabel;html=1;align=center;verticalAlign=middle;resizable=0;points=[];container=0;" vertex="1" connectable="0" parent="GUqVhu9UTtbnG5ZzC5dU-105">
          <mxGeometry x="0.615" y="3" relative="1" as="geometry">
            <mxPoint as="offset" />
          </mxGeometry>
        </mxCell>
        <mxCell id="GUqVhu9UTtbnG5ZzC5dU-116" value="" style="group" vertex="1" connectable="0" parent="1">
          <mxGeometry x="370.01" y="230" width="749.99" height="410" as="geometry" />
        </mxCell>
        <mxCell id="GUqVhu9UTtbnG5ZzC5dU-57" value="" style="rounded=0;whiteSpace=wrap;html=1;container=0;" vertex="1" parent="GUqVhu9UTtbnG5ZzC5dU-116">
          <mxGeometry y="90" width="749.99" height="320" as="geometry" />
        </mxCell>
        <mxCell id="GUqVhu9UTtbnG5ZzC5dU-114" value="" style="rounded=0;whiteSpace=wrap;html=1;dashed=1;dashPattern=8 8;strokeWidth=2;shadow=0;glass=0;fillStyle=auto;fillColor=#dae8fc;strokeColor=none;" vertex="1" parent="GUqVhu9UTtbnG5ZzC5dU-116">
          <mxGeometry x="489.99" y="231" width="220" height="136" as="geometry" />
        </mxCell>
        <mxCell id="GUqVhu9UTtbnG5ZzC5dU-58" value="" style="endArrow=none;html=1;rounded=0;strokeWidth=5;" edge="1" parent="GUqVhu9UTtbnG5ZzC5dU-116">
          <mxGeometry width="50" height="50" relative="1" as="geometry">
            <mxPoint x="20.99000000000001" y="156" as="sourcePoint" />
            <mxPoint x="290.99" y="156" as="targetPoint" />
          </mxGeometry>
        </mxCell>
        <mxCell id="GUqVhu9UTtbnG5ZzC5dU-59" value="" style="endArrow=none;html=1;rounded=0;strokeWidth=5;" edge="1" parent="GUqVhu9UTtbnG5ZzC5dU-116">
          <mxGeometry width="50" height="50" relative="1" as="geometry">
            <mxPoint x="20.99000000000001" y="182" as="sourcePoint" />
            <mxPoint x="290.99" y="182" as="targetPoint" />
          </mxGeometry>
        </mxCell>
        <mxCell id="GUqVhu9UTtbnG5ZzC5dU-60" value="" style="endArrow=none;html=1;rounded=0;strokeWidth=5;" edge="1" parent="GUqVhu9UTtbnG5ZzC5dU-116">
          <mxGeometry width="50" height="50" relative="1" as="geometry">
            <mxPoint x="20.99000000000001" y="212" as="sourcePoint" />
            <mxPoint x="290.99" y="212" as="targetPoint" />
          </mxGeometry>
        </mxCell>
        <mxCell id="GUqVhu9UTtbnG5ZzC5dU-61" value="" style="endArrow=none;html=1;rounded=0;strokeWidth=5;" edge="1" parent="GUqVhu9UTtbnG5ZzC5dU-116">
          <mxGeometry width="50" height="50" relative="1" as="geometry">
            <mxPoint x="431.99" y="155" as="sourcePoint" />
            <mxPoint x="701.99" y="155" as="targetPoint" />
          </mxGeometry>
        </mxCell>
        <mxCell id="GUqVhu9UTtbnG5ZzC5dU-62" value="" style="endArrow=none;html=1;rounded=0;strokeWidth=5;" edge="1" parent="GUqVhu9UTtbnG5ZzC5dU-116">
          <mxGeometry width="50" height="50" relative="1" as="geometry">
            <mxPoint x="431.99" y="181" as="sourcePoint" />
            <mxPoint x="701.99" y="181" as="targetPoint" />
          </mxGeometry>
        </mxCell>
        <mxCell id="GUqVhu9UTtbnG5ZzC5dU-63" value="" style="endArrow=none;html=1;rounded=0;strokeWidth=5;" edge="1" parent="GUqVhu9UTtbnG5ZzC5dU-116">
          <mxGeometry width="50" height="50" relative="1" as="geometry">
            <mxPoint x="431.99" y="211" as="sourcePoint" />
            <mxPoint x="701.99" y="211" as="targetPoint" />
          </mxGeometry>
        </mxCell>
        <mxCell id="GUqVhu9UTtbnG5ZzC5dU-64" value="" style="endArrow=none;html=1;rounded=0;strokeWidth=5;dashed=1;dashPattern=1 1;" edge="1" parent="GUqVhu9UTtbnG5ZzC5dU-116">
          <mxGeometry width="50" height="50" relative="1" as="geometry">
            <mxPoint x="539.99" y="270" as="sourcePoint" />
            <mxPoint x="701.99" y="270" as="targetPoint" />
          </mxGeometry>
        </mxCell>
        <mxCell id="GUqVhu9UTtbnG5ZzC5dU-65" value="" style="endArrow=none;html=1;rounded=0;strokeWidth=5;dashed=1;dashPattern=1 1;" edge="1" parent="GUqVhu9UTtbnG5ZzC5dU-116">
          <mxGeometry width="50" height="50" relative="1" as="geometry">
            <mxPoint x="619.99" y="360" as="sourcePoint" />
            <mxPoint x="701.99" y="360" as="targetPoint" />
          </mxGeometry>
        </mxCell>
        <mxCell id="GUqVhu9UTtbnG5ZzC5dU-66" value="" style="endArrow=none;html=1;rounded=0;strokeWidth=5;dashed=1;dashPattern=1 1;" edge="1" parent="GUqVhu9UTtbnG5ZzC5dU-116">
          <mxGeometry width="50" height="50" relative="1" as="geometry">
            <mxPoint x="539.99" y="300" as="sourcePoint" />
            <mxPoint x="701.99" y="300" as="targetPoint" />
          </mxGeometry>
        </mxCell>
        <mxCell id="GUqVhu9UTtbnG5ZzC5dU-67" value="" style="endArrow=none;html=1;rounded=0;strokeWidth=5;dashed=1;dashPattern=1 1;" edge="1" parent="GUqVhu9UTtbnG5ZzC5dU-116">
          <mxGeometry width="50" height="50" relative="1" as="geometry">
            <mxPoint x="559.99" y="330" as="sourcePoint" />
            <mxPoint x="701.99" y="330" as="targetPoint" />
          </mxGeometry>
        </mxCell>
        <mxCell id="GUqVhu9UTtbnG5ZzC5dU-69" value="" style="endArrow=none;html=1;rounded=0;strokeWidth=5;" edge="1" parent="GUqVhu9UTtbnG5ZzC5dU-116">
          <mxGeometry width="50" height="50" relative="1" as="geometry">
            <mxPoint x="90.99000000000001" y="241" as="sourcePoint" />
            <mxPoint x="290.99" y="241" as="targetPoint" />
          </mxGeometry>
        </mxCell>
        <mxCell id="GUqVhu9UTtbnG5ZzC5dU-70" value="&lt;b&gt;&lt;font style=&quot;font-size: 13px;&quot;&gt;&amp;nbsp;inputing&amp;nbsp;&lt;/font&gt;&lt;/b&gt;" style="edgeLabel;html=1;align=center;verticalAlign=middle;resizable=0;points=[];container=0;" vertex="1" connectable="0" parent="GUqVhu9UTtbnG5ZzC5dU-69">
          <mxGeometry x="0.615" y="3" relative="1" as="geometry">
            <mxPoint as="offset" />
          </mxGeometry>
        </mxCell>
        <mxCell id="GUqVhu9UTtbnG5ZzC5dU-71" value="" style="endArrow=none;html=1;rounded=0;strokeWidth=5;" edge="1" parent="GUqVhu9UTtbnG5ZzC5dU-116">
          <mxGeometry width="50" height="50" relative="1" as="geometry">
            <mxPoint x="499.99" y="240" as="sourcePoint" />
            <mxPoint x="619.99" y="239" as="targetPoint" />
          </mxGeometry>
        </mxCell>
        <mxCell id="GUqVhu9UTtbnG5ZzC5dU-72" value="&lt;b&gt;&lt;font style=&quot;font-size: 13px;&quot;&gt;&amp;nbsp;inputing&amp;nbsp;&lt;/font&gt;&lt;/b&gt;" style="edgeLabel;html=1;align=center;verticalAlign=middle;resizable=0;points=[];container=0;" vertex="1" connectable="0" parent="GUqVhu9UTtbnG5ZzC5dU-71">
          <mxGeometry x="0.615" y="3" relative="1" as="geometry">
            <mxPoint as="offset" />
          </mxGeometry>
        </mxCell>
        <mxCell id="GUqVhu9UTtbnG5ZzC5dU-81" value="" style="endArrow=none;html=1;rounded=0;strokeWidth=5;dashed=1;dashPattern=1 1;" edge="1" parent="GUqVhu9UTtbnG5ZzC5dU-116">
          <mxGeometry width="50" height="50" relative="1" as="geometry">
            <mxPoint x="619.99" y="238.5" as="sourcePoint" />
            <mxPoint x="701.99" y="238.5" as="targetPoint" />
          </mxGeometry>
        </mxCell>
        <mxCell id="GUqVhu9UTtbnG5ZzC5dU-82" value="&lt;span style=&quot;text-wrap: nowrap;&quot;&gt;&lt;font style=&quot;font-size: 17px;&quot;&gt;&lt;b&gt;名称 + 切换 type后 当前输入行 命中Ref Model&lt;/b&gt;&lt;/font&gt;&lt;/span&gt;&lt;b&gt;&lt;font style=&quot;font-size: 20px;&quot;&gt;&lt;br&gt;&lt;/font&gt;&lt;/b&gt;" style="rounded=1;whiteSpace=wrap;html=1;strokeWidth=2;fillWeight=4;hachureGap=8;hachureAngle=45;fillColor=#1ba1e2;sketch=1;container=0;" vertex="1" parent="GUqVhu9UTtbnG5ZzC5dU-116">
          <mxGeometry x="131.96894736842103" width="486.05263157894734" height="90" as="geometry" />
        </mxCell>
        <mxCell id="GUqVhu9UTtbnG5ZzC5dU-84" value="AI" style="shape=curlyBracket;whiteSpace=wrap;html=1;rounded=1;flipH=1;labelPosition=right;verticalLabelPosition=middle;align=left;verticalAlign=middle;container=0;" vertex="1" parent="GUqVhu9UTtbnG5ZzC5dU-116">
          <mxGeometry x="709.9884210526316" y="234" width="21.052631578947366" height="130" as="geometry" />
        </mxCell>
        <mxCell id="GUqVhu9UTtbnG5ZzC5dU-117" value="" style="rounded=0;whiteSpace=wrap;html=1;dashed=1;dashPattern=8 8;strokeWidth=2;shadow=0;glass=0;fillStyle=auto;fillColor=#dae8fc;strokeColor=none;" vertex="1" parent="1">
          <mxGeometry x="788.98" y="1460" width="280" height="160" as="geometry" />
        </mxCell>
        <mxCell id="GUqVhu9UTtbnG5ZzC5dU-118" value="" style="endArrow=none;html=1;rounded=0;strokeWidth=5;" edge="1" parent="1">
          <mxGeometry width="50" height="50" relative="1" as="geometry">
            <mxPoint x="379.97" y="1406" as="sourcePoint" />
            <mxPoint x="649.97" y="1406" as="targetPoint" />
          </mxGeometry>
        </mxCell>
        <mxCell id="GUqVhu9UTtbnG5ZzC5dU-119" value="" style="endArrow=none;html=1;rounded=0;strokeWidth=5;" edge="1" parent="1">
          <mxGeometry width="50" height="50" relative="1" as="geometry">
            <mxPoint x="379.97" y="1432" as="sourcePoint" />
            <mxPoint x="649.97" y="1432" as="targetPoint" />
          </mxGeometry>
        </mxCell>
        <mxCell id="GUqVhu9UTtbnG5ZzC5dU-120" value="" style="endArrow=none;html=1;rounded=0;strokeWidth=5;" edge="1" parent="1">
          <mxGeometry width="50" height="50" relative="1" as="geometry">
            <mxPoint x="379.97" y="1462" as="sourcePoint" />
            <mxPoint x="649.97" y="1462" as="targetPoint" />
          </mxGeometry>
        </mxCell>
        <mxCell id="GUqVhu9UTtbnG5ZzC5dU-121" value="" style="endArrow=none;html=1;rounded=0;strokeWidth=5;" edge="1" parent="1">
          <mxGeometry width="50" height="50" relative="1" as="geometry">
            <mxPoint x="790.97" y="1405" as="sourcePoint" />
            <mxPoint x="1060.97" y="1405" as="targetPoint" />
          </mxGeometry>
        </mxCell>
        <mxCell id="GUqVhu9UTtbnG5ZzC5dU-122" value="" style="endArrow=none;html=1;rounded=0;strokeWidth=5;" edge="1" parent="1">
          <mxGeometry width="50" height="50" relative="1" as="geometry">
            <mxPoint x="790.97" y="1431" as="sourcePoint" />
            <mxPoint x="1060.97" y="1431" as="targetPoint" />
          </mxGeometry>
        </mxCell>
        <mxCell id="GUqVhu9UTtbnG5ZzC5dU-123" value="" style="endArrow=none;html=1;rounded=0;strokeWidth=5;dashed=1;dashPattern=1 1;labelBorderColor=none;" edge="1" parent="1">
          <mxGeometry width="50" height="50" relative="1" as="geometry">
            <mxPoint x="798.97" y="1461" as="sourcePoint" />
            <mxPoint x="1061.98" y="1461" as="targetPoint" />
          </mxGeometry>
        </mxCell>
        <mxCell id="GUqVhu9UTtbnG5ZzC5dU-124" value="" style="endArrow=none;html=1;rounded=0;strokeWidth=5;dashed=1;dashPattern=1 1;labelBorderColor=none;" edge="1" parent="1">
          <mxGeometry width="50" height="50" relative="1" as="geometry">
            <mxPoint x="868.98" y="1490" as="sourcePoint" />
            <mxPoint x="1061.98" y="1490" as="targetPoint" />
          </mxGeometry>
        </mxCell>
        <mxCell id="GUqVhu9UTtbnG5ZzC5dU-125" value="" style="endArrow=none;html=1;rounded=0;strokeWidth=5;dashed=1;dashPattern=1 1;labelBorderColor=none;" edge="1" parent="1">
          <mxGeometry width="50" height="50" relative="1" as="geometry">
            <mxPoint x="978.97" y="1610" as="sourcePoint" />
            <mxPoint x="1061.98" y="1610" as="targetPoint" />
          </mxGeometry>
        </mxCell>
        <mxCell id="GUqVhu9UTtbnG5ZzC5dU-126" value="" style="endArrow=none;html=1;rounded=0;strokeWidth=5;dashed=1;dashPattern=1 1;labelBorderColor=none;" edge="1" parent="1">
          <mxGeometry width="50" height="50" relative="1" as="geometry">
            <mxPoint x="898.97" y="1550" as="sourcePoint" />
            <mxPoint x="1061.98" y="1550" as="targetPoint" />
          </mxGeometry>
        </mxCell>
        <mxCell id="GUqVhu9UTtbnG5ZzC5dU-127" value="" style="endArrow=none;html=1;rounded=0;strokeWidth=5;dashed=1;dashPattern=1 1;labelBorderColor=none;" edge="1" parent="1">
          <mxGeometry width="50" height="50" relative="1" as="geometry">
            <mxPoint x="918.97" y="1580" as="sourcePoint" />
            <mxPoint x="1061.98" y="1580" as="targetPoint" />
          </mxGeometry>
        </mxCell>
        <mxCell id="GUqVhu9UTtbnG5ZzC5dU-128" value="" style="endArrow=none;html=1;rounded=0;strokeWidth=5;" edge="1" parent="1">
          <mxGeometry width="50" height="50" relative="1" as="geometry">
            <mxPoint x="449.97" y="1491" as="sourcePoint" />
            <mxPoint x="649.97" y="1491" as="targetPoint" />
          </mxGeometry>
        </mxCell>
        <mxCell id="GUqVhu9UTtbnG5ZzC5dU-129" value="" style="endArrow=none;html=1;rounded=0;strokeWidth=5;labelBorderColor=none;" edge="1" parent="1">
          <mxGeometry width="50" height="50" relative="1" as="geometry">
            <mxPoint x="868.98" y="1520.5" as="sourcePoint" />
            <mxPoint x="978.97" y="1520.5" as="targetPoint" />
          </mxGeometry>
        </mxCell>
        <mxCell id="GUqVhu9UTtbnG5ZzC5dU-130" value="&lt;b&gt;&lt;font style=&quot;font-size: 13px;&quot;&gt;&amp;nbsp;inputing&amp;nbsp;&lt;/font&gt;&lt;/b&gt;" style="edgeLabel;html=1;align=center;verticalAlign=middle;resizable=0;points=[];container=0;labelBorderColor=none;" vertex="1" connectable="0" parent="GUqVhu9UTtbnG5ZzC5dU-129">
          <mxGeometry x="0.615" y="3" relative="1" as="geometry">
            <mxPoint as="offset" />
          </mxGeometry>
        </mxCell>
        <mxCell id="GUqVhu9UTtbnG5ZzC5dU-131" value="" style="endArrow=none;html=1;rounded=0;strokeWidth=5;dashed=1;dashPattern=1 1;labelBorderColor=none;" edge="1" parent="1">
          <mxGeometry width="50" height="50" relative="1" as="geometry">
            <mxPoint x="978.97" y="1520" as="sourcePoint" />
            <mxPoint x="1061.98" y="1520" as="targetPoint" />
          </mxGeometry>
        </mxCell>
        <mxCell id="GUqVhu9UTtbnG5ZzC5dU-132" value="&lt;span style=&quot;text-wrap: nowrap;&quot;&gt;&lt;font style=&quot;font-size: 17px;&quot;&gt;&lt;b&gt;当前输入的父级以上（Root）命中Ref Model&lt;/b&gt;&lt;/font&gt;&lt;/span&gt;&lt;b&gt;&lt;font style=&quot;font-size: 20px;&quot;&gt;&lt;br&gt;&lt;/font&gt;&lt;/b&gt;" style="rounded=1;whiteSpace=wrap;html=1;strokeWidth=2;fillWeight=4;hachureGap=8;hachureAngle=45;fillColor=#1ba1e2;sketch=1;container=0;" vertex="1" parent="1">
          <mxGeometry x="490.94894736842105" y="1250" width="486.05263157894734" height="90" as="geometry" />
        </mxCell>
        <mxCell id="GUqVhu9UTtbnG5ZzC5dU-133" value="AI" style="shape=curlyBracket;whiteSpace=wrap;html=1;rounded=1;flipH=1;labelPosition=right;verticalLabelPosition=middle;align=left;verticalAlign=middle;container=0;" vertex="1" parent="1">
          <mxGeometry x="1068.98" y="1456" width="21.05" height="164" as="geometry" />
        </mxCell>
        <mxCell id="GUqVhu9UTtbnG5ZzC5dU-134" value="" style="endArrow=none;html=1;rounded=0;strokeWidth=5;" edge="1" parent="1">
          <mxGeometry width="50" height="50" relative="1" as="geometry">
            <mxPoint x="448.98" y="1520" as="sourcePoint" />
            <mxPoint x="648.98" y="1520" as="targetPoint" />
          </mxGeometry>
        </mxCell>
        <mxCell id="GUqVhu9UTtbnG5ZzC5dU-135" value="&lt;b&gt;&lt;font style=&quot;font-size: 13px;&quot;&gt;&amp;nbsp;inputing&amp;nbsp;&lt;/font&gt;&lt;/b&gt;" style="edgeLabel;html=1;align=center;verticalAlign=middle;resizable=0;points=[];container=0;" vertex="1" connectable="0" parent="GUqVhu9UTtbnG5ZzC5dU-134">
          <mxGeometry x="0.615" y="3" relative="1" as="geometry">
            <mxPoint as="offset" />
          </mxGeometry>
        </mxCell>
      </root>
    </mxGraphModel>
  </diagram>
</mxfile>
